<svg width="21" height="15" viewBox="0 0 21 15" fill="none" xmlns="http://www.w3.org/2000/svg">
<path opacity="0.4" d="M20.2452 1.28287L20.2452 1.28287L20.2441 1.28434L11.2446 14.2837C11.2445 14.2837 11.2445 14.2838 11.2445 14.2838C11.1985 14.3502 11.1371 14.4044 11.0656 14.4419C10.994 14.4794 10.9144 14.4989 10.8336 14.4989C10.7528 14.4989 10.6732 14.4794 10.6017 14.4419C10.5301 14.4044 10.4687 14.3501 10.4226 14.2837L1.42371 1.28523C1.42359 1.28505 1.42346 1.28488 1.42334 1.2847C1.37163 1.20945 1.34133 1.12157 1.33568 1.03043C1.33004 0.939318 1.34925 0.848393 1.39124 0.767362C1.43359 0.686793 1.49713 0.61931 1.57501 0.572195C1.6531 0.524956 1.74262 0.499991 1.83388 0.500006H1.83397L19.8333 0.500006V0.500009L19.835 0.500003C19.9262 0.499684 20.0157 0.524401 20.0938 0.57146C20.1719 0.618519 20.2355 0.686113 20.2778 0.766872C20.3202 0.847632 20.3395 0.938457 20.3337 1.02945C20.328 1.12044 20.2973 1.2081 20.2452 1.28287ZM18.3354 2.28452L18.8786 1.49993H17.9243L3.74289 1.49993L2.78863 1.49993L3.33179 2.28452L10.4225 12.5271L10.8336 13.121L11.2447 12.5271L18.3354 2.28452Z" fill="white" stroke="white"/>
</svg>
