<svg width="32" height="32" viewBox="0 0 32 32" fill="none" xmlns="http://www.w3.org/2000/svg">
<path d="M11 11.5C11 9.81886 11.4985 8.17547 12.4325 6.77766C13.3665 5.37984 14.694 4.29037 16.2472 3.64703C17.8004 3.00368 19.5095 2.83535 21.1583 3.16333C22.8071 3.4913 24.3217 4.30085 25.5104 5.4896C26.6992 6.67834 27.5087 8.1929 27.8367 9.84174C28.1647 11.4906 27.9963 13.1996 27.353 14.7528C26.7097 16.306 25.6202 17.6335 24.2224 18.5675C22.8246 19.5015 21.1812 20 19.5 20H9.50002C8.70145 19.9993 7.91259 19.8248 7.18829 19.4884C6.46399 19.1521 5.82162 18.6621 5.30582 18.0525C4.79002 17.4428 4.41317 16.7281 4.20145 15.9581C3.98973 15.1881 3.94823 14.3813 4.07984 13.5936C4.21144 12.806 4.51299 12.0564 4.96352 11.3971C5.41405 10.7377 6.00277 10.1844 6.68874 9.77553C7.37471 9.36667 8.14149 9.1121 8.93579 9.0295C9.73008 8.94691 10.5328 9.03827 11.2882 9.29724" stroke="white" stroke-width="2" stroke-linecap="round" stroke-linejoin="round"/>
<path d="M9.5 26C10.3284 26 11 25.3284 11 24.5C11 23.6716 10.3284 23 9.5 23C8.67157 23 8 23.6716 8 24.5C8 25.3284 8.67157 26 9.5 26Z" fill="white"/>
<path d="M8.5 31C9.32843 31 10 30.3284 10 29.5C10 28.6716 9.32843 28 8.5 28C7.67157 28 7 28.6716 7 29.5C7 30.3284 7.67157 31 8.5 31Z" fill="white"/>
<path d="M14.5 28C15.3284 28 16 27.3284 16 26.5C16 25.6716 15.3284 25 14.5 25C13.6716 25 13 25.6716 13 26.5C13 27.3284 13.6716 28 14.5 28Z" fill="white"/>
<path d="M20.5 26C21.3284 26 22 25.3284 22 24.5C22 23.6716 21.3284 23 20.5 23C19.6716 23 19 23.6716 19 24.5C19 25.3284 19.6716 26 20.5 26Z" fill="white"/>
<path d="M19.5 31C20.3284 31 21 30.3284 21 29.5C21 28.6716 20.3284 28 19.5 28C18.6716 28 18 28.6716 18 29.5C18 30.3284 18.6716 31 19.5 31Z" fill="white"/>
</svg>
