<svg width="90" height="100" viewBox="0 0 90 100" fill="none" xmlns="http://www.w3.org/2000/svg">
<path d="M27.7343 33.0235C27.7343 27.3196 29.4257 21.7439 32.5946 17.0013C35.7635 12.2587 40.2676 8.56225 45.5373 6.37948C50.807 4.1967 56.6056 3.62559 62.1999 4.73836C67.7942 5.85113 72.9328 8.5978 76.9661 12.631C80.9993 16.6643 83.746 21.803 84.8588 27.3972C85.9715 32.9915 85.4004 38.7901 83.2176 44.0598C81.0349 49.3295 77.3385 53.8336 72.5959 57.0025C67.8533 60.1714 62.2775 61.8628 56.5736 61.8628H22.645C19.9356 61.8605 17.2591 61.2682 14.8017 60.1271C12.3442 58.9861 10.1648 57.3235 8.41472 55.255C6.66469 53.1866 5.38607 50.7619 4.66775 48.1494C3.94943 45.5369 3.80863 42.7993 4.25514 40.1269C4.70165 37.4544 5.72475 34.9113 7.25335 32.6742C8.78194 30.4372 10.7794 28.5598 13.1068 27.1726C15.4342 25.7854 18.0358 24.9217 20.7307 24.6414C23.4256 24.3612 26.1492 24.6712 28.7123 25.5499" fill="white" fill-opacity="0.2"/>
<path d="M27.7343 33.0235C27.7343 27.3196 29.4257 21.7439 32.5946 17.0013C35.7635 12.2587 40.2676 8.56225 45.5373 6.37948C50.807 4.1967 56.6056 3.62559 62.1999 4.73836C67.7942 5.85113 72.9328 8.5978 76.9661 12.631C80.9993 16.6643 83.746 21.803 84.8588 27.3972C85.9715 32.9915 85.4004 38.7901 83.2176 44.0598C81.0349 49.3295 77.3385 53.8336 72.5959 57.0025C67.8533 60.1714 62.2775 61.8628 56.5736 61.8628H22.645C19.9356 61.8605 17.2591 61.2682 14.8017 60.1271C12.3442 58.9861 10.1648 57.3235 8.41472 55.255C6.66469 53.1866 5.38607 50.7619 4.66775 48.1494C3.94943 45.5369 3.80863 42.7993 4.25514 40.1269C4.70165 37.4544 5.72475 34.9113 7.25335 32.6742C8.78194 30.4372 10.7794 28.5598 13.1068 27.1726C15.4342 25.7854 18.0358 24.9217 20.7307 24.6414C23.4256 24.3612 26.1492 24.6712 28.7123 25.5499" stroke="white" stroke-width="8" stroke-linecap="round" stroke-linejoin="round"/>
<path d="M22.6449 82.2199C25.4557 82.2199 27.7342 79.9413 27.7342 77.1306C27.7342 74.3199 25.4557 72.0413 22.6449 72.0413C19.8342 72.0413 17.5557 74.3199 17.5557 77.1306C17.5557 79.9413 19.8342 82.2199 22.6449 82.2199Z" fill="white"/>
<path d="M19.2521 99.1842C22.0629 99.1842 24.3414 96.9056 24.3414 94.0949C24.3414 91.2842 22.0629 89.0056 19.2521 89.0056C16.4414 89.0056 14.1628 91.2842 14.1628 94.0949C14.1628 96.9056 16.4414 99.1842 19.2521 99.1842Z" fill="white"/>
<path d="M39.6093 89.0057C42.42 89.0057 44.6986 86.7271 44.6986 83.9164C44.6986 81.1056 42.42 78.8271 39.6093 78.8271C36.7986 78.8271 34.52 81.1056 34.52 83.9164C34.52 86.7271 36.7986 89.0057 39.6093 89.0057Z" fill="white"/>
<path d="M59.9665 82.2199C62.7772 82.2199 65.0558 79.9413 65.0558 77.1306C65.0558 74.3199 62.7772 72.0413 59.9665 72.0413C57.1557 72.0413 54.8772 74.3199 54.8772 77.1306C54.8772 79.9413 57.1557 82.2199 59.9665 82.2199Z" fill="white"/>
<path d="M56.5735 99.1842C59.3843 99.1842 61.6628 96.9056 61.6628 94.0949C61.6628 91.2842 59.3843 89.0056 56.5735 89.0056C53.7628 89.0056 51.4843 91.2842 51.4843 94.0949C51.4843 96.9056 53.7628 99.1842 56.5735 99.1842Z" fill="white"/>
</svg>
